<?xml version="1.0" encoding="UTF-8" standalone="no"?>
<!-- Created with Inkscape (http://www.inkscape.org/) -->

<svg
   version="1.1"
   id="svg2"
   xml:space="preserve"
   width="1158.3333"
   height="986.58667"
   viewBox="0 0 1158.3333 986.58667"
   sodipodi:docname="kenya-power-and-lighting-seeklogo.com.eps"
   xmlns:inkscape="http://www.inkscape.org/namespaces/inkscape"
   xmlns:sodipodi="http://sodipodi.sourceforge.net/DTD/sodipodi-0.dtd"
   xmlns="http://www.w3.org/2000/svg"
   xmlns:svg="http://www.w3.org/2000/svg"><defs
     id="defs6" /><sodipodi:namedview
     id="namedview4"
     pagecolor="#ffffff"
     bordercolor="#666666"
     borderopacity="1.0"
     inkscape:pageshadow="2"
     inkscape:pageopacity="0.0"
     inkscape:pagecheckerboard="0" /><g
     id="g8"
     inkscape:groupmode="layer"
     inkscape:label="ink_ext_XXXXXX"
     transform="matrix(1.3333333,0,0,-1.3333333,0,986.58667)"><g
       id="g10"
       transform="scale(0.1)"><path
         d="m 3529.69,3409.1 h 1796.43 c 100.62,0 182.94,-82.31 182.94,-182.94 v -0.01 c 0,-100.61 -82.32,-182.94 -182.94,-182.94 H 3529.69 c -100.62,0 -182.94,82.33 -182.94,182.94 v 0.01 c 0,100.63 82.32,182.94 182.94,182.94"
         style="fill:#2e3192;fill-opacity:1;fill-rule:evenodd;stroke:none"
         id="path12" /><path
         d="m 3646.52,2960.78 h 1562.77 c 100.61,0 182.94,-82.31 182.94,-182.94 v -0.01 c 0,-100.61 -82.33,-182.94 -182.94,-182.94 H 3646.52 c -100.62,0 -182.94,82.33 -182.94,182.94 v 0.01 c 0,100.63 82.32,182.94 182.94,182.94"
         style="fill:#2e3192;fill-opacity:1;fill-rule:evenodd;stroke:none"
         id="path14" /><path
         d="M 3735.22,2505.06 H 5120.6 c 100.61,0 182.94,-82.31 182.94,-182.94 0,-100.63 -82.33,-182.94 -182.94,-182.94 H 3735.22 c -100.63,0 -182.94,82.31 -182.94,182.94 0,100.63 82.31,182.94 182.94,182.94"
         style="fill:#2e3192;fill-opacity:1;fill-rule:evenodd;stroke:none"
         id="path16" /><path
         d="m 4090.82,2053.14 h 674.17 c 100.63,0 182.95,-82.33 182.95,-182.94 v -0.02 c 0,-100.62 -82.32,-182.93 -182.95,-182.93 h -674.17 c -100.62,0 -182.94,82.31 -182.94,182.93 v 0.02 c 0,100.61 82.32,182.94 182.94,182.94"
         style="fill:#2e3192;fill-opacity:1;fill-rule:evenodd;stroke:none"
         id="path18" /><path
         d="m 6427.68,7385.04 c 0,0 -789.74,-660.59 -1181.62,-2162.61 C 5116.97,4727.66 4944.14,3911.48 4929.7,3409.1 h -524.13 c 0,0 430.78,2698.35 2022.11,3975.94"
         style="fill:#fff200;fill-opacity:1;fill-rule:evenodd;stroke:none"
         id="path20" /><path
         d="m 2316.98,7399.38 c 0,0 940.74,-854.45 1332.62,-2356.47 129.1,-494.78 290.7,-1131.43 305.14,-1633.81 h 524.14 c 0,0 -581.79,2796.84 -2161.9,3990.28"
         style="fill:#2e3192;fill-opacity:1;fill-rule:evenodd;stroke:none"
         id="path22" /><path
         d="m 4130.45,6461.88 h 571.14 L 4416.02,5197.73 Z"
         style="fill:#00a650;fill-opacity:1;fill-rule:evenodd;stroke:none"
         id="path24" /><path
         d="M 0,326.07 V 1437.84 H 204.414 V 945.371 L 616.34,1437.84 H 890.313 L 509.414,1004.88 910.055,326.07 H 646.406 L 368.668,848.07 204.414,662.25 V 326.07 Z M 1436.86,580.719 1630,545.012 c -24.67,-77.891 -63.9,-137.16 -117.24,-178.051 -53.58,-40.621 -120.55,-61.07 -200.67,-61.07 -127.11,0 -221.35,45.8 -282.21,137.418 -48.165,73.5 -72.364,166.14 -72.364,278.203 0,133.539 31.718,238.34 94.924,313.918 63.21,75.82 143.34,113.6 240.15,113.6 108.56,0 194.32,-39.6 257.3,-118.79 62.73,-79.17 92.81,-200.549 89.99,-364.111 H 1156.3 c 1.41,-63.137 16.91,-112.309 46.76,-147.508 29.61,-35.191 66.73,-52.801 110.91,-52.801 30.31,0 55.69,9.059 76.13,27.18 20.68,18.109 36.19,47.359 46.76,87.719 z m 11.28,215.84 c -1.41,61.863 -15.74,108.961 -43.24,141.043 -27.49,32.347 -60.86,48.398 -100.33,48.398 -42.07,0 -76.84,-17.09 -104.34,-50.988 -27.48,-33.903 -40.87,-80.223 -40.4,-138.453 z M 2463.46,326.07 h -193.14 v 410.719 c 0,86.941 -4.23,143.102 -12.46,168.461 -8.46,25.621 -21.84,45.301 -40.65,59.52 -18.78,14.23 -41.35,21.23 -67.66,21.23 -33.85,0 -64.15,-10.102 -90.95,-30.289 -27.01,-20.172 -45.34,-47.09 -55.21,-80.211 -10.1,-33.391 -15.04,-94.98 -15.04,-185.039 V 326.07 h -193.14 v 805.88 h 179.05 v -118.26 c 64.14,90.31 144.75,135.34 242.25,135.34 42.77,0 82.01,-8.53 117.49,-25.36 35.72,-17.08 62.5,-38.55 80.6,-64.69 18.32,-26.39 31.02,-56.16 38.06,-89.55 7.28,-33.371 10.8,-81 10.8,-143.11 z m 102.69,805.88 H 2772 l 175.51,-571.669 171.31,571.669 h 200.19 l -258,-775.591 -46.53,-140.019 C 2997.33,169.512 2981.12,133.789 2965.61,108.949 2950.34,84.3711 2932.48,64.1797 2912.5,48.9102 2892.53,33.3789 2867.86,21.4805 2838.49,12.9414 2809.35,4.39844 2776.22,0 2739.33,0 2702.21,0 2665.54,4.39844 2629.6,12.9414 l -16.91,166.1366 c 30.3,-6.457 57.8,-9.828 82.23,-9.828 45.11,0 78.49,14.488 100.1,43.742 21.62,29.25 38.3,66.496 49.81,111.528 z M 3587.13,883.52 3412.3,917.68 c 19.74,78.672 53.82,136.9 101.98,174.68 48.17,37.78 119.85,56.67 214.77,56.67 86.23,0 150.61,-11.13 192.91,-33.64 42.06,-22.51 71.91,-50.98 89.06,-85.65 17.15,-34.689 25.84,-98.08 25.84,-190.74 l -2.81,-248.43 c 0,-70.66 3.05,-122.929 9.16,-156.582 6.11,-33.636 17.62,-69.609 34.53,-107.918 h -191.73 c -4.94,13.989 -11.28,34.692 -18.57,62.11 -3.04,12.691 -5.39,20.961 -6.81,24.851 -32.89,-35.711 -68.13,-62.371 -105.74,-80.23 -37.59,-17.852 -77.53,-26.91 -120.07,-26.91 -74.96,0 -134.17,22.507 -177.4,67.55 -43.24,44.758 -64.86,101.711 -64.86,170.547 0,45.282 9.88,85.91 29.61,121.633 19.74,35.449 47.23,62.891 82.94,81.77 35.49,18.89 86.72,35.449 153.69,49.691 90.22,18.629 152.96,36.227 187.73,52.277 v 21.473 c 0,41.41 -9.16,70.91 -27.49,88.77 -18.56,17.597 -53.33,26.398 -104.32,26.398 -34.54,0 -61.34,-7.508 -80.59,-22.781 -19.51,-15.008 -35.03,-41.66 -47,-79.699 z m 259.4,-172.36 c -24.67,-9.058 -63.9,-19.93 -117.72,-32.609 -53.57,-12.68 -88.81,-25.102 -105.27,-37.012 -25.13,-19.918 -37.82,-44.769 -37.82,-75.051 0,-30.008 10.11,-55.636 30.31,-77.379 20.2,-21.738 45.82,-32.609 77.06,-32.609 34.78,0 68.15,12.691 99.88,37.801 23.26,19.398 38.77,42.687 46.05,70.64 4.93,18.11 7.51,52.797 7.51,103.778 z m 766.98,420.79 h 180.45 v -118.26 c 23.51,40.37 54.99,72.97 94.93,98.08 39.96,24.84 84.36,37.26 133,37.26 84.83,0 156.97,-36.74 216.18,-110.24 59.21,-73.231 88.81,-175.72 88.81,-306.669 0,-134.832 -29.83,-239.383 -89.52,-314.172 -59.67,-74.789 -132.06,-112.058 -217.12,-112.058 -40.41,0 -77.07,8.8 -109.96,26.648 -32.66,17.602 -67.45,47.883 -103.62,90.852 V 20.1797 h -193.15 z m 190.33,-390.509 c 0,-90.832 16.21,-157.871 48.87,-201.339 32.43,-43.223 72.13,-64.95 118.65,-64.95 44.89,0 82.25,19.918 112.09,59.77 29.85,39.859 44.66,105.078 44.66,195.91 0,84.879 -15.29,147.758 -46.07,188.93 -30.54,41.129 -68.61,61.578 -113.96,61.578 -47.23,0 -86.47,-20.192 -117.48,-60.551 -31.26,-40.379 -46.76,-100.16 -46.76,-179.348 z m 631.37,-2.589 c 0,70.91 15.75,139.488 47.46,205.738 31.71,66.51 76.61,116.97 134.64,151.91 58.04,34.94 122.66,52.53 194.33,52.53 110.67,0 201.14,-39.6 271.87,-118.79 70.72,-79.431 105.96,-179.33 105.96,-300.439 0,-122.16 -35.71,-223.34 -106.91,-303.571 -71.43,-80.23 -161.18,-120.339 -269.51,-120.339 -66.98,0 -130.88,16.82 -191.74,50.199 -60.63,33.379 -106.93,82.308 -138.64,147 -31.71,64.441 -47.46,143.109 -47.46,235.762 z m 198.78,-11.383 c 0,-79.981 17.16,-141.309 51.47,-183.75 34.53,-42.688 76.83,-63.918 127.35,-63.918 50.3,0 92.58,21.23 126.65,63.918 34.08,42.441 51.23,104.301 51.23,185.293 0,78.937 -17.15,139.758 -51.23,182.199 -34.07,42.691 -76.35,63.918 -126.65,63.918 -50.52,0 -92.82,-21.227 -127.35,-63.918 -34.31,-42.441 -51.47,-103.781 -51.47,-183.742 z m 842.87,-401.399 -231.23,805.88 h 187.99 l 136.99,-528.188 126.18,528.188 h 186.57 l 121.47,-528.188 139.82,528.188 h 190.8 L 7100.48,326.07 H 6914.84 L 6789.13,844.441 6665.07,326.07 Z m 1384.22,254.649 193.16,-35.707 c -24.68,-77.891 -63.91,-137.16 -117.26,-178.051 -53.57,-40.621 -120.54,-61.07 -200.66,-61.07 -127.12,0 -221.34,45.8 -282.21,137.418 -48.17,73.5 -72.36,166.14 -72.36,278.203 0,133.539 31.71,238.34 94.92,313.918 63.21,75.82 143.34,113.6 240.15,113.6 108.55,0 194.31,-39.6 257.29,-118.79 62.74,-79.17 92.82,-200.549 89.99,-364.111 h -483.57 c 1.4,-63.137 16.92,-112.309 46.76,-147.508 29.6,-35.191 66.72,-52.801 110.9,-52.801 30.32,0 55.71,9.059 76.14,27.18 20.67,18.109 36.19,47.359 46.75,87.719 z m 11.28,215.84 c -1.4,61.863 -15.73,108.961 -43.23,141.043 -27.5,32.347 -60.86,48.398 -100.33,48.398 -42.06,0 -76.85,-17.09 -104.33,-50.988 -27.5,-33.903 -40.9,-80.223 -40.42,-138.453 z M 8406.94,326.07 h -193.15 v 805.88 h 179.05 v -114.37 c 30.78,54.07 58.51,89.53 83.19,106.36 24.66,16.81 52.62,25.09 83.88,25.09 44.18,0 86.7,-13.45 127.59,-40.1 l -59.91,-185.821 c -32.67,23.293 -62.98,34.942 -90.95,34.942 -27.26,0 -50.27,-8.27 -69.07,-24.59 -18.81,-16.551 -33.61,-46.07 -44.42,-89.02 -10.82,-42.961 -16.21,-133.019 -16.21,-269.921 V 326.07"
         style="fill:#2e3192;fill-opacity:1;fill-rule:nonzero;stroke:none"
         id="path26" /></g></g></svg>
